<svg width="22" height="22" version="1.1" viewBox="0 0 700 700" xmlns="http://www.w3.org/2000/svg" xmlns:xlink="http://www.w3.org/1999/xlink">
    <path d="m186.79 533.05c-23.957 26.953-68.879 26.953-92.836 0-26.953-26.953-26.953-68.879 0-95.828l155.72-158.71-155.72-155.72c-26.953-26.953-26.953-68.879 0-95.828 23.957-26.953 68.879-26.953 92.836 0l158.71 158.71 164.71-164.71c26.953-26.953 68.879-26.953 95.828 0 26.953 23.957 26.953 68.879 0 92.836l-164.71 164.71 164.71 164.71c26.953 26.953 26.953 68.879 0 95.828-26.953 26.953-68.879 26.953-95.828 0l-164.71-164.71z"/>
</svg>