<?xml version="1.0" encoding="UTF-8"?>
<svg width="25" height="25" version="1.1" viewBox="0 0 700 700" xmlns="http://www.w3.org/2000/svg" xmlns:xlink="http://www.w3.org/1999/xlink">
    <g>
        <path d="m562.8 28h-425.6c-21.609 0-39.199 17.59-39.199 39.199v425.6c0 21.609 17.59 39.199 39.199 39.199h425.6c21.609 0 39.199-17.59 39.199-39.199v-425.6c0-21.609-17.59-39.199-39.199-39.199zm16.801 464.8c0 9.2617-7.5391 16.801-16.801 16.801h-425.6c-9.2617 0-16.801-7.5391-16.801-16.801v-425.6c0-9.2617 7.5391-16.801 16.801-16.801h425.6c9.2617 0 16.801 7.5391 16.801 16.801z"/>
        <path d="m305.2 100.86h-134.4c-15.438 0-28 12.562-28 28v330.43c0 15.438 12.562 28 28 28h134.4c15.438 0 28-12.562 28-28v-330.43c0-15.441-12.559-28-28-28zm5.6016 358.43c0 3.0898-2.5078 5.6016-5.6016 5.6016h-134.4c-3.0898 0-5.6016-2.5078-5.6016-5.6016v-330.43c0-3.0898 2.5078-5.6016 5.6016-5.6016h134.4c3.0898 0 5.6016 2.5078 5.6016 5.6016z"/>
        <path d="m529.2 100.86h-134.4c-15.438 0-28 12.562-28 28v223.28c0 15.438 12.562 28 28 28h134.4c15.438 0 28-12.562 28-28v-223.28c0-15.441-12.559-28-28-28zm5.6016 251.28c0 3.0898-2.5078 5.6016-5.6016 5.6016h-134.4c-3.0898 0-5.6016-2.5078-5.6016-5.6016v-223.28c0-3.0898 2.5078-5.6016 5.6016-5.6016h134.4c3.0898 0 5.6016 2.5078 5.6016 5.6016z"/>
        <use x="70" y="644" xlink:href="#i"/>
        <use x="90.550781" y="644" xlink:href="#e"/>
        <use x="104.359375" y="644" xlink:href="#c"/>
        <use x="123.347656" y="644" xlink:href="#d"/>
        <use x="142.242188" y="644" xlink:href="#b"/>
        <use x="155.628906" y="644" xlink:href="#c"/>
        <use x="174.617188" y="644" xlink:href="#m"/>
        <use x="204.410156" y="644" xlink:href="#l"/>
        <use x="224.453125" y="644" xlink:href="#k"/>
        <use x="252.453125" y="644" xlink:href="#j"/>
        <use x="262.867188" y="644" xlink:href="#a"/>
        <use x="282.105469" y="644" xlink:href="#f"/>
        <use x="302.039062" y="644" xlink:href="#d"/>
        <use x="320.933594" y="644" xlink:href="#b"/>
        <use x="334.320312" y="644" xlink:href="#h"/>
        <use x="354.25" y="644" xlink:href="#d"/>
        <use x="373.148438" y="644" xlink:href="#f"/>
        <use x="402.828125" y="644" xlink:href="#i"/>
        <use x="423.375" y="644" xlink:href="#a"/>
        <use x="442.613281" y="644" xlink:href="#g"/>
        <use x="462.546875" y="644" xlink:href="#b"/>
        <use x="475.929687" y="644" xlink:href="#u"/>
        <use x="485.53125" y="644" xlink:href="#t"/>
        <use x="505.460937" y="644" xlink:href="#a"/>
        <use x="70" y="672" xlink:href="#s"/>
        <use x="82.183594" y="672" xlink:href="#e"/>
        <use x="95.992188" y="672" xlink:href="#a"/>
        <use x="115.226562" y="672" xlink:href="#r"/>
        <use x="154.152344" y="672" xlink:href="#b"/>
        <use x="167.535156" y="672" xlink:href="#h"/>
        <use x="187.46875" y="672" xlink:href="#c"/>
        <use x="216.207031" y="672" xlink:href="#q"/>
        <use x="239.640625" y="672" xlink:href="#a"/>
        <use x="258.878906" y="672" xlink:href="#g"/>
        <use x="278.8125" y="672" xlink:href="#f"/>
        <use x="308.492188" y="672" xlink:href="#p"/>
        <use x="329.015625" y="672" xlink:href="#e"/>
        <use x="342.820312" y="672" xlink:href="#a"/>
        <use x="362.058594" y="672" xlink:href="#o"/>
        <use x="371.65625" y="672" xlink:href="#c"/>
        <use x="390.648438" y="672" xlink:href="#n"/>
        <use x="407.242188" y="672" xlink:href="#b"/>
    </g>
</svg>