<svg width="30" height="30" version="1.1" viewBox="0 0 700 700" xmlns="http://www.w3.org/2000/svg">
    <g>
        <path d="m406.25 96.621c0 14.922-5.9258 29.227-16.473 39.777-10.551 10.547-24.859 16.477-39.777 16.477s-29.227-5.9297-39.777-16.477c-10.547-10.551-16.473-24.855-16.473-39.777 0-14.918 5.9258-29.227 16.473-39.773 10.551-10.551 24.859-16.477 39.777-16.477s29.227 5.9258 39.777 16.477c10.547 10.547 16.473 24.855 16.473 39.773z"/>
        <path d="m406.25 280c0 14.918-5.9258 29.227-16.473 39.773-10.551 10.551-24.859 16.477-39.777 16.477s-29.227-5.9258-39.777-16.477c-10.547-10.547-16.473-24.855-16.473-39.773s5.9258-29.227 16.473-39.777c10.551-10.547 24.859-16.473 39.777-16.473s29.227 5.9258 39.777 16.473c10.547 10.551 16.473 24.859 16.473 39.777z"/>
        <path d="m406.25 463.38c0 14.922-5.9258 29.227-16.473 39.777-10.551 10.551-24.859 16.477-39.777 16.477s-29.227-5.9258-39.777-16.477c-10.547-10.551-16.473-24.855-16.473-39.777 0-14.918 5.9258-29.227 16.473-39.773 10.551-10.551 24.859-16.477 39.777-16.477s29.227 5.9258 39.777 16.477c10.547 10.547 16.473 24.855 16.473 39.773z"/>
    </g>
</svg>