<svg width="35" height="35" version="1.1" viewBox="0 0 700 700" xmlns="http://www.w3.org/2000/svg" xmlns:xlink="http://www.w3.org/1999/xlink">
    <g>
        <path d="m187.6 442.4c2.2383 2.2383 5.0391 3.3594 7.8398 3.3594 2.8008 0 5.6016-1.1211 7.8398-3.3594l309.12-309.12c4.4805-4.4805 4.4805-11.199 0-15.68-4.4805-4.4805-11.199-4.4805-15.68 0l-309.12 309.12c-4.4805 3.9219-4.4805 11.203 0 15.68z"/>
        <path d="m344.4 212.8c8.3984 0 16.238 1.6797 24.078 4.4805 5.6016 2.2383 12.32-0.55859 14.559-6.1602 2.2383-5.6016-0.55859-12.32-6.1602-14.559-10.637-3.9219-21.273-6.1641-32.477-6.1641-49.281 0-89.602 40.32-89.602 89.602 0 11.199 2.2383 21.84 6.1602 32.48 1.6797 4.4805 6.1602 7.2812 10.641 7.2812 1.1211 0 2.8008 0 3.9219-0.55859 5.6016-2.2383 8.3984-8.9609 6.1602-14.559-2.8008-8.4062-4.4805-16.246-4.4805-24.645 0-36.961 30.242-67.199 67.199-67.199z"/>
        <path d="m344.4 347.2c-5.6016 0-11.199-0.55859-16.801-2.2383-6.1602-1.6797-12.32 2.2383-13.441 7.8398-1.6797 6.1602 2.2383 12.32 7.8398 13.441 7.8398 2.2383 15.121 2.8008 22.398 2.8008 49.281 0 89.602-40.32 89.602-89.602 0-7.2812-1.1211-15.121-2.8008-22.398-1.6797-6.1602-7.8398-9.5195-13.441-7.8398-6.1602 1.6797-9.5195 7.8398-7.8398 13.441 1.6797 5.6016 2.2383 11.199 2.2383 16.801-0.55078 37.516-30.793 67.754-67.754 67.754z"/>
        <path d="m221.76 369.04c3.9219 0 7.8398-2.2383 9.5195-5.6016 3.3594-5.6016 1.1211-12.32-3.9219-15.121-27.441-16.238-56-38.078-85.68-65.52 99.121-94.078 176.96-123.2 259.28-96.879 6.1602 1.6797 12.32-1.1211 14-7.2812 1.6797-6.1602-1.1211-12.32-7.2812-14-92.398-29.117-181.44 4.4844-289.52 109.76-2.2383 2.2422-3.3594 5.043-3.3594 7.8398v0.55859c0 2.8008 1.1211 6.1602 3.3594 7.8398 33.602 33.039 65.52 57.68 98 76.719 1.6797 1.6836 3.3594 1.6836 5.6016 1.6836z"/>
        <path d="m574 283.36v-0.55859c0-2.8008-1.1211-6.1602-3.3594-7.8398-33.039-31.922-62.719-56.559-92.398-75.602-5.0391-3.3594-12.32-1.6797-15.68 3.3594s-1.6797 12.32 3.3594 15.68c25.762 16.801 52.078 38.078 81.199 64.961-89.602 84.559-170.24 114.8-252 94.078-6.1602-1.6797-12.32 2.2383-13.441 8.3984-1.6797 6.1602 2.2383 12.32 8.3984 13.441 17.922 4.4805 35.84 6.7188 53.762 6.7188 73.359 0 148.4-37.52 226.8-114.24 2.2383-2.7969 3.3594-5.5977 3.3594-8.3984z"/>
    </g>
</svg>