<?xml version="1.0" encoding="UTF-8"?>
<svg width="30" height="30" version="1.1" viewBox="0 0 700 700" xmlns="http://www.w3.org/2000/svg" xmlns:xlink="http://www.w3.org/1999/xlink">
    <g>
        <path d="m286.23 335.23c-57.312-57.312-65.297-150.28-40.469-232.53-6.3438 5.0312-12.469 10.281-18.266 16.078-77.547 77.547-77.547 203.22 0 280.44 77.547 77.547 203.22 77.547 280.44 0 8.5312-8.5312 16.078-17.719 22.75-27.453-85.094 29.312-184.41 23.516-244.45-36.531z"/>
        <path d="m394.84 87.5 25.375 51.406 56.875 8.3125-41.125 40.031 9.625 56.547-50.75-26.688-50.75 26.688 9.625-56.547-41.125-40.031 56.875-8.3125z"/>
        <use x="70" y="576.40625" xlink:href="#u"/>
        <use x="74.011719" y="576.40625" xlink:href="#c"/>
        <use x="76.710938" y="576.40625" xlink:href="#a"/>
        <use x="80.417969" y="576.40625" xlink:href="#i"/>
        <use x="84.109375" y="576.40625" xlink:href="#b"/>
        <use x="86.722656" y="576.40625" xlink:href="#a"/>
        <use x="90.433594" y="576.40625" xlink:href="#h"/>
        <use x="96.25" y="576.40625" xlink:href="#g"/>
        <use x="100.167969" y="576.40625" xlink:href="#f"/>
        <use x="105.636719" y="576.40625" xlink:href="#e"/>
        <use x="109.574219" y="576.40625" xlink:href="#t"/>
        <use x="113.742187" y="576.40625" xlink:href="#s"/>
        <use x="117.472656" y="576.40625" xlink:href="#e"/>
        <use x="70" y="581.875" xlink:href="#r"/>
        <use x="72.378906" y="581.875" xlink:href="#c"/>
        <use x="75.078125" y="581.875" xlink:href="#d"/>
        <use x="78.832031" y="581.875" xlink:href="#q"/>
        <use x="86.4375" y="581.875" xlink:href="#b"/>
        <use x="89.050781" y="581.875" xlink:href="#p"/>
        <use x="92.941406" y="581.875" xlink:href="#a"/>
        <use x="98.554688" y="581.875" xlink:href="#o"/>
        <use x="103.132812" y="581.875" xlink:href="#d"/>
        <use x="106.890625" y="581.875" xlink:href="#n"/>
        <use x="110.785156" y="581.875" xlink:href="#m"/>
        <use x="116.582031" y="581.875" xlink:href="#l"/>
        <use x="120.589844" y="581.875" xlink:href="#c"/>
        <use x="123.285156" y="581.875" xlink:href="#d"/>
        <use x="127.042969" y="581.875" xlink:href="#k"/>
        <use x="128.917969" y="581.875" xlink:href="#a"/>
        <use x="132.625" y="581.875" xlink:href="#j"/>
        <use x="135.867188" y="581.875" xlink:href="#b"/>
    </g>
</svg>