<svg width="30" height="30" viewBox="0 0 71 75" version="1.1" xmlns="http://www.w3.org/2000/svg" style="fill-rule:evenodd;clip-rule:evenodd;stroke-linejoin:round;stroke-miterlimit:2;">
    <g transform="matrix(1,0,0,1,-3.41898,-3.25264)">
        <g>
            <g>
                <path d="M23.388,5.25C23.388,4.147 22.493,3.253 21.391,3.253L5.416,3.253C4.314,3.253 3.419,4.147 3.419,5.25L3.419,75.778C3.419,76.88 4.314,77.775 5.416,77.775L21.391,77.775C22.493,77.775 23.388,76.88 23.388,75.778L23.388,5.25Z" style="fill:rgb(100,95,198);"/>
                <g transform="matrix(1,0,0,1,25.3211,0)">
                    <path d="M23.388,5.25C23.388,4.147 22.493,3.253 21.391,3.253L5.416,3.253C4.314,3.253 3.419,4.147 3.419,5.25L3.419,75.778C3.419,76.88 4.314,77.775 5.416,77.775L21.391,77.775C22.493,77.775 23.388,76.88 23.388,75.778L23.388,5.25Z" style="fill:rgb(100,95,198);fill-opacity:0.6;"/>
                </g>
                <g transform="matrix(1,0,0,1,50.4364,0)">
                    <path d="M23.388,5.25C23.388,4.147 22.493,3.253 21.391,3.253L5.416,3.253C4.314,3.253 3.419,4.147 3.419,5.25L3.419,75.778C3.419,76.88 4.314,77.775 5.416,77.775L21.391,77.775C22.493,77.775 23.388,76.88 23.388,75.778L23.388,5.25Z" style="fill:rgb(100,95,198);fill-opacity:0.2;"/>
                </g>
            </g>
        </g>
    </g>
</svg>